<svg width="" height="" viewBox="0 0 24 24" fill="none" xmlns="http://www.w3.org/2000/svg">
<g clip-path="url(#clip0_3217_156658)">
<path d="M23.2853 22.7186C23.2964 22.7956 23.2893 22.8741 23.2647 22.9479C23.2402 23.0217 23.1987 23.0887 23.1437 23.1437C23.0887 23.1987 23.0217 23.2402 22.9479 23.2647C22.8741 23.2893 22.7956 23.2964 22.7186 23.2853L17.6837 22.5725C15.937 23.5128 13.9837 24.0034 12 24C5.37238 24 0 18.6276 0 12C0 5.37238 5.37238 0 12 0C18.6276 0 24 5.37238 24 12C24.0031 13.9838 23.5121 15.9371 22.5713 17.6837L23.2853 22.7186Z" fill="#5097FF"/>
<path d="M11.797 15.5354C11.6917 15.5329 11.5871 15.5519 11.4893 15.5911C11.3916 15.6303 11.3029 15.689 11.2285 15.7635C11.0789 15.915 10.9954 16.1196 10.9961 16.3325C10.9968 16.5455 11.0817 16.7495 11.2322 16.9C11.3828 17.0506 11.5867 17.1356 11.7997 17.1363C12.0126 17.1371 12.2172 17.0536 12.3688 16.9041C12.4829 16.7923 12.5609 16.6489 12.5926 16.4923C12.6243 16.3358 12.6084 16.1733 12.5468 16.0259C12.4853 15.8785 12.3809 15.753 12.2472 15.6655C12.1135 15.5781 11.9567 15.5327 11.797 15.5354Z" fill="white"/>
<path d="M14.642 8.1019C14.3915 7.72051 14.043 7.41873 13.5965 7.19655C13.1499 6.97437 12.6318 6.86328 12.0421 6.86328C11.3873 6.86328 10.8398 6.98259 10.3998 7.2212C9.95985 7.45982 9.6242 7.77912 9.39292 8.17912C9.16075 8.58151 9.02284 9.0313 8.98955 9.49467L8.98242 9.58585H10.1824L10.1896 9.51605C10.2222 9.20239 10.3134 8.92982 10.4631 8.69833C10.6149 8.46496 10.8271 8.27703 11.0771 8.15447C11.3367 8.02378 11.642 7.95833 11.9931 7.95813C12.3391 7.95813 12.6407 8.02249 12.8982 8.1512C13.144 8.2694 13.3519 8.4541 13.4982 8.68437C13.6431 8.91925 13.7174 9.19082 13.7123 9.46675V9.47536C13.7162 9.70033 13.6781 9.92404 13.6 10.1351C13.5191 10.3352 13.3958 10.5155 13.2386 10.6635C13.038 10.8512 12.818 11.0171 12.5824 11.1583C12.2953 11.3263 12.0301 11.5293 11.7929 11.7625C11.5937 11.9594 11.4362 12.1945 11.3298 12.4537C11.2261 12.7209 11.1749 13.0056 11.179 13.2922V13.9367H12.4069V13.4808C12.4022 13.2612 12.4367 13.0425 12.5088 12.8351C12.5852 12.6398 12.7052 12.4646 12.8596 12.3227C13.0255 12.1643 13.256 11.9983 13.551 11.8249C13.9997 11.5534 14.3562 11.22 14.6203 10.8248C14.8845 10.4295 15.0167 9.95813 15.0169 9.41061V9.40348C15.0173 8.91675 14.8923 8.48289 14.642 8.1019Z" fill="white"/>
</g>
<defs>
<clipPath id="clip0_3217_156658">
<rect width="24" height="24" fill="white"/>
</clipPath>
</defs>
</svg>
