<svg width="52" height="52" viewBox="0 0 52 52" fill="none" xmlns="http://www.w3.org/2000/svg">
<g clip-path="url(#clip0_6932_1080281)">
<rect width="52" height="52" rx="0.83871" fill="#305EFF" fill-opacity="0.09"/>
<path d="M5.0332 57.6457V27.6618C5.0332 26.7354 5.78421 25.9844 6.71062 25.9844H45.0816C46.008 25.9844 46.759 26.7354 46.759 27.6618V57.6457" stroke="#2249D1" stroke-opacity="0.18" stroke-width="0.209677"/>
<path d="M-3.98389 48.6454V9.64544C-3.98389 8.71902 -3.23288 7.96802 -2.30647 7.96802H54.0968C55.0232 7.96802 55.7742 8.71902 55.7742 9.64544V48.6454" stroke="#2249D1" stroke-opacity="0.18" stroke-width="0.209677"/>
<g filter="url(#filter0_d_6932_1080281)">
<rect width="54.8237" height="39.4346" transform="translate(13.2061 -2)" fill="#4D7FFF"/>
<g filter="url(#filter1_i_6932_1080281)">
<rect width="52.2588" height="37.9788" transform="translate(14.4883 -2)" fill="#F5F8FF"/>
</g>
</g>
<g clip-path="url(#clip1_6932_1080281)">
<path d="M10 37.4351H71.2358C71.2358 38.8516 70.0875 39.9999 68.6709 39.9999H12.5648C11.1483 39.9999 10 38.8516 10 37.4351Z" fill="#3E66CC"/>
<rect x="32.4429" y="36.4734" width="16.0303" height="1.92364" rx="0.961819" fill="#B4CDFD"/>
</g>
<path d="M31.6495 25.9097C31.6195 25.9097 31.5795 25.9297 31.5495 25.9297C29.6095 24.9697 28.0296 23.3798 27.0596 21.4398C27.0596 21.4098 27.0796 21.3698 27.0796 21.3398C28.2996 21.6998 29.5595 21.9698 30.8095 22.1798C31.0295 23.4398 31.2895 24.6897 31.6495 25.9097Z" fill="#91E3BA"/>
<path d="M44.9405 21.4491C43.9505 23.439 42.3005 25.049 40.2905 26.0189C40.6705 24.749 40.9905 23.469 41.2005 22.1791C42.4605 21.9691 43.7005 21.6991 44.9205 21.3391C44.9105 21.3791 44.9405 21.4191 44.9405 21.4491Z" fill="#91E3BA"/>
<path d="M45.0205 12.7113C43.7605 12.3313 42.4905 12.0213 41.2005 11.8013C40.9905 10.5114 40.6805 9.2314 40.2905 7.98145C42.3605 8.97141 44.0305 10.6414 45.0205 12.7113Z" fill="#91E3BA"/>
<path d="M31.6499 8.08957C31.2899 9.30953 31.0299 10.5495 30.8199 11.8094C29.5299 12.0094 28.25 12.3294 26.98 12.7094C27.95 10.6995 29.5599 9.04953 31.5499 8.05957C31.5799 8.05957 31.6199 8.08957 31.6499 8.08957Z" fill="#91E3BA"/>
<path d="M39.4901 11.5898C37.1702 11.3298 34.8302 11.3298 32.5103 11.5898C32.7602 10.2199 33.0802 8.84993 33.5302 7.52998C33.5502 7.44998 33.5402 7.38999 33.5502 7.30999C34.3402 7.12 35.1502 7 36.0002 7C36.8402 7 37.6602 7.12 38.4402 7.30999C38.4502 7.38999 38.4502 7.44998 38.4702 7.52998C38.9202 8.85993 39.2401 10.2199 39.4901 11.5898Z" fill="#60BB8E"/>
<path d="M30.5899 20.4902C29.21 20.2403 27.85 19.9203 26.53 19.4703C26.45 19.4503 26.39 19.4603 26.31 19.4503C26.12 18.6603 26 17.8503 26 17.0004C26 16.1604 26.12 15.3404 26.31 14.5605C26.39 14.5505 26.45 14.5505 26.53 14.5305C27.86 14.0905 29.21 13.7605 30.5899 13.5105C30.3399 15.8304 30.3399 18.1703 30.5899 20.4902Z" fill="#91E3BA"/>
<path d="M46.0001 17.0004C46.0001 17.8503 45.8801 18.6603 45.6901 19.4503C45.6101 19.4603 45.5501 19.4503 45.4701 19.4703C44.1401 19.9103 42.7801 20.2403 41.4102 20.4902C41.6702 18.1703 41.6702 15.8304 41.4102 13.5105C42.7801 13.7605 44.1501 14.0805 45.4701 14.5305C45.5501 14.5505 45.6101 14.5605 45.6901 14.5605C45.8801 15.3504 46.0001 16.1604 46.0001 17.0004Z" fill="#91E3BA"/>
<path d="M39.4901 22.4099C39.2401 23.7899 38.9202 25.1498 38.4702 26.4698C38.4502 26.5498 38.4502 26.6098 38.4402 26.6898C37.6602 26.8798 36.8402 26.9997 36.0002 26.9997C35.1502 26.9997 34.3402 26.8798 33.5502 26.6898C33.5402 26.6098 33.5502 26.5498 33.5302 26.4698C33.0902 25.1398 32.7602 23.7899 32.5103 22.4099C33.6702 22.5399 34.8302 22.6299 36.0002 22.6299C37.1702 22.6299 38.3402 22.5399 39.4901 22.4099Z" fill="#60BB8E"/>
<path d="M39.7627 20.7633C37.2617 21.0788 34.7372 21.0788 32.2362 20.7633C31.9206 18.2623 31.9206 15.7379 32.2362 13.2369C34.7372 12.9214 37.2617 12.9214 39.7627 13.2369C40.0783 15.7379 40.0783 18.2623 39.7627 20.7633Z" fill="#60BB8E"/>
</g>
<defs>
<filter id="filter0_d_6932_1080281" x="13.2061" y="-2" width="55.4649" height="40.717" filterUnits="userSpaceOnUse" color-interpolation-filters="sRGB">
<feFlood flood-opacity="0" result="BackgroundImageFix"/>
<feColorMatrix in="SourceAlpha" type="matrix" values="0 0 0 0 0 0 0 0 0 0 0 0 0 0 0 0 0 0 127 0" result="hardAlpha"/>
<feOffset dx="0.641212" dy="1.28242"/>
<feComposite in2="hardAlpha" operator="out"/>
<feColorMatrix type="matrix" values="0 0 0 0 0.105882 0 0 0 0 0.207843 0 0 0 0 0.568627 0 0 0 1 0"/>
<feBlend mode="normal" in2="BackgroundImageFix" result="effect1_dropShadow_6932_1080281"/>
<feBlend mode="normal" in="SourceGraphic" in2="effect1_dropShadow_6932_1080281" result="shape"/>
</filter>
<filter id="filter1_i_6932_1080281" x="14.4883" y="-2" width="52.2588" height="37.9788" filterUnits="userSpaceOnUse" color-interpolation-filters="sRGB">
<feFlood flood-opacity="0" result="BackgroundImageFix"/>
<feBlend mode="normal" in="SourceGraphic" in2="BackgroundImageFix" result="shape"/>
<feColorMatrix in="SourceAlpha" type="matrix" values="0 0 0 0 0 0 0 0 0 0 0 0 0 0 0 0 0 0 127 0" result="hardAlpha"/>
<feOffset dx="0.961819" dy="1.28242"/>
<feComposite in2="hardAlpha" operator="arithmetic" k2="-1" k3="1"/>
<feColorMatrix type="matrix" values="0 0 0 0 0.705882 0 0 0 0 0.803922 0 0 0 0 0.992157 0 0 0 1 0"/>
<feBlend mode="normal" in2="shape" result="effect1_innerShadow_6932_1080281"/>
</filter>
<clipPath id="clip0_6932_1080281">
<rect width="52" height="52" rx="0.83871" fill="white"/>
</clipPath>
<clipPath id="clip1_6932_1080281">
<path d="M10 37.4351H71.2358C71.2358 38.8516 70.0875 39.9999 68.6709 39.9999H12.5648C11.1483 39.9999 10 38.8516 10 37.4351Z" fill="white"/>
</clipPath>
</defs>
</svg>
