<svg width="248" height="220" viewBox="0 0 248 220" fill="none" xmlns="http://www.w3.org/2000/svg">
<g clip-path="url(#clip0_7256_14428)">
<rect width="248" height="220" rx="4" fill="#F5F8FF"/>
<g clip-path="url(#clip1_7256_14428)">
<path d="M52 43.7113C52 40.0047 55.0047 37 58.7113 37H248.289C251.995 37 255 40.0047 255 43.7113V228H52V43.7113Z" fill="#75A3FF"/>
<path d="M59 57C59 54.7909 60.7909 53 63 53H327.813C329.573 53 331 54.4269 331 56.1872V245H59V57Z" fill="white"/>
<g filter="url(#filter0_d_7256_14428)">
<g clip-path="url(#clip2_7256_14428)">
<rect x="75" y="69" width="93.9992" height="93.9992" rx="6.99994" fill="#EBFAF3"/>
<path d="M147.161 131.031C147.156 128.677 147.159 126.304 147.213 123.927C147.399 116.017 148.195 108.099 151.425 101.03C151.408 101.012 151.388 101 151.37 100.983C150.535 100.291 149.493 99.9036 148.473 99.529C143.738 97.7902 139.003 96.0514 134.267 94.3125C133.563 94.0546 132.856 93.7966 132.151 93.5386C132.065 93.7743 131.968 94.0049 131.859 94.2332C131.087 95.8728 129.847 97.2891 128.312 98.2565C126.422 99.4472 123.815 99.6283 121.897 99.6283H121.773C119.856 99.6283 117.246 99.4472 115.358 98.2565C113.826 97.2891 112.583 95.8728 111.811 94.2332C111.702 94.0049 111.605 93.7718 111.519 93.5361C110.814 93.7966 110.107 94.0546 109.403 94.315C104.665 96.0538 99.9297 97.7927 95.1944 99.5315C94.1774 99.9061 93.1356 100.293 92.2997 100.985C92.2798 101.002 92.26 101.015 92.2451 101.032C95.4723 108.102 96.271 116.017 96.457 123.927V123.932C96.5091 126.309 96.5116 128.682 96.5066 131.034C96.4818 145.421 96.4521 159.808 96.4273 174.195C96.4248 174.85 96.4248 175.509 96.4248 176.164C104.863 176.993 113.652 176.998 121.771 176.998H121.907C130.026 176.998 138.814 176.993 147.253 176.164C147.253 175.509 147.25 174.85 147.25 174.195C147.223 159.808 147.196 145.421 147.166 131.034L147.161 131.031Z" fill="#91E3BA"/>
<g style="mix-blend-mode:multiply" opacity="0.09">
<path d="M96.4537 123.924V123.929C96.5058 126.306 96.5083 128.68 96.5033 131.031C96.4785 145.418 96.4487 159.805 96.4239 174.192C96.4214 174.847 96.4214 175.507 96.4214 176.161C96.9696 176.216 97.5203 176.266 98.0735 176.313V134.199C98.0735 123.523 97.2326 116.113 97.2326 116.113C96.8605 116.617 96.4983 117.105 96.1387 117.587C96.3123 119.69 96.4066 121.809 96.4562 123.927L96.4537 123.924Z" fill="#009E5C"/>
</g>
<g style="mix-blend-mode:multiply" opacity="0.25">
<path d="M147.243 174.191C147.216 159.804 147.189 145.417 147.159 131.03C147.154 128.676 147.156 126.303 147.211 123.926C147.256 122.024 147.338 120.121 147.476 118.229C144.852 115.619 142.91 114.104 142.91 114.104C142.91 114.104 141.067 135.555 140.871 150.212C140.725 161.28 141.186 172.013 141.422 176.607C143.371 176.493 145.316 176.349 147.243 176.161C147.243 175.506 147.241 174.846 147.241 174.191H147.243Z" fill="#009E5C"/>
</g>
<path d="M131.862 94.2305C131.09 95.8701 129.85 97.2865 128.315 98.2538C126.425 99.4445 123.818 99.6256 121.9 99.6256H121.776C119.859 99.6256 117.249 99.4445 115.362 98.2538C113.829 97.2865 112.586 95.8701 111.814 94.2305C114.97 95.5947 118.638 96.2025 121.811 96.2025H121.865C125.041 96.2025 128.709 95.5947 131.864 94.2305H131.862Z" fill="#DAF5E8"/>
<path d="M132.152 93.5348C132.065 93.7705 131.968 94.0011 131.859 94.2294C128.704 95.5936 125.035 96.2014 121.86 96.2014H121.806C118.633 96.2014 114.965 95.5936 111.809 94.2294C111.7 94.0011 111.603 93.768 111.517 93.5323C112.003 93.3537 112.486 93.1776 112.973 92.999C115.897 94.0557 119.097 94.3261 121.833 94.3261C124.569 94.3261 127.769 94.0532 130.696 92.999C131.182 93.1776 131.666 93.3537 132.152 93.5348Z" fill="#91E3BA"/>
<path d="M92.241 101.03C91.2141 101.903 90.5915 103.159 89.9986 104.376C86.8459 110.873 83.6882 117.367 80.5851 123.757C80.3321 124.275 80.0816 124.791 79.8311 125.305C83.1971 128.182 87.0394 130.506 91.3208 132.101C91.7003 131.612 92.0748 131.111 92.437 130.605C93.9551 128.494 95.297 126.262 96.448 123.933V123.928C96.2619 116.017 95.4657 108.102 92.2361 101.033L92.241 101.03Z" fill="#91E3BA"/>
<g style="mix-blend-mode:multiply" opacity="0.09">
<path d="M91.3233 132.099C91.7028 131.611 92.0774 131.11 92.4396 130.604C93.9576 128.493 95.2996 126.26 96.4505 123.931V123.926C96.4009 121.808 96.3067 119.689 96.133 117.586C91.8938 123.284 88.6419 127.52 86.7021 130.013C88.178 130.805 89.7184 131.504 91.3209 132.099H91.3233Z" fill="#009E5C"/>
</g>
<path d="M151.429 101.031C152.456 101.904 153.078 103.16 153.671 104.377C156.824 110.874 159.981 117.368 163.085 123.758C163.338 124.276 163.588 124.792 163.839 125.305C160.473 128.183 156.63 130.507 152.349 132.102C151.969 131.613 151.595 131.112 151.233 130.606C149.715 128.495 148.373 126.263 147.222 123.934V123.929C147.408 116.018 148.204 108.103 151.434 101.034L151.429 101.031Z" fill="#91E3BA"/>
<g style="mix-blend-mode:multiply" opacity="0.25">
<path d="M147.483 118.23C147.342 120.121 147.262 122.023 147.218 123.926V123.931C148.371 126.262 149.713 128.492 151.229 130.603C151.593 131.109 151.965 131.608 152.345 132.099C153.9 131.519 155.398 130.841 156.837 130.08C153.98 125.188 150.331 121.063 147.483 118.23Z" fill="#009E5C"/>
</g>
</g>
<rect x="76" y="70" width="91.9992" height="91.9992" rx="5.99995" stroke="#B6ECD1" stroke-width="1.99998"/>
</g>
<g clip-path="url(#clip3_7256_14428)">
<rect x="175" y="69" width="43.9996" height="43.9996" rx="3.27657" fill="#E7EEFE"/>
<path d="M198.287 105.71C198.283 104.057 198.285 102.389 198.323 100.721C198.454 95.1649 199.013 89.604 201.281 84.6389C201.269 84.6267 201.255 84.618 201.243 84.6058C200.656 84.1198 199.924 83.848 199.208 83.585C195.883 82.3637 192.557 81.1425 189.231 79.9213C188.736 79.7401 188.24 79.5589 187.745 79.3777C187.684 79.5432 187.616 79.7052 187.54 79.8655C186.998 81.0171 186.127 82.0118 185.048 82.6912C183.721 83.5275 181.89 83.6546 180.543 83.6546H180.456C179.109 83.6546 177.277 83.5275 175.951 82.6912C174.874 82.0118 174.001 81.0171 173.46 79.8655C173.383 79.7052 173.315 79.5415 173.254 79.376C172.759 79.5589 172.263 79.7401 171.768 79.923C168.441 81.1442 165.115 82.3655 161.789 83.5867C161.075 83.8498 160.343 84.1215 159.756 84.6076C159.742 84.6198 159.728 84.6285 159.718 84.6407C161.984 89.6058 162.545 95.1649 162.676 100.721V100.724C162.712 102.393 162.714 104.06 162.711 105.712C162.693 115.816 162.672 125.92 162.655 136.025C162.653 136.485 162.653 136.948 162.653 137.408C168.58 137.99 174.752 137.993 180.454 137.993H180.55C186.252 137.993 192.424 137.99 198.351 137.408C198.351 136.948 198.349 136.485 198.349 136.025C198.33 125.92 198.311 115.816 198.29 105.712L198.287 105.71Z" fill="#B4CDFD"/>
<g style="mix-blend-mode:multiply" opacity="0.25">
<path d="M198.346 136.022C198.327 125.917 198.308 115.813 198.287 105.709C198.283 104.055 198.285 102.388 198.323 100.719C198.355 99.3829 198.412 98.0467 198.51 96.7175C196.666 94.8848 195.302 93.8203 195.302 93.8203C195.302 93.8203 194.008 108.886 193.87 119.18C193.768 126.954 194.092 134.492 194.257 137.718C195.626 137.638 196.992 137.537 198.346 137.405C198.346 136.945 198.344 136.482 198.344 136.022H198.346Z" fill="#2950DA"/>
</g>
<path d="M187.541 79.8643C186.999 81.0158 186.128 82.0106 185.05 82.69C183.722 83.5262 181.891 83.6534 180.544 83.6534H180.457C179.111 83.6534 177.278 83.5262 175.952 82.69C174.876 82.0106 174.003 81.0158 173.461 79.8643C175.677 80.8224 178.254 81.2492 180.482 81.2492H180.52C182.75 81.2492 185.327 80.8224 187.543 79.8643H187.541Z" fill="#D8E4FD"/>
<path d="M187.745 79.3743C187.684 79.5398 187.616 79.7019 187.539 79.8621C185.323 80.8203 182.747 81.2471 180.517 81.2471H180.478C178.25 81.2471 175.674 80.8203 173.458 79.8621C173.381 79.7019 173.313 79.5381 173.252 79.3726C173.593 79.2472 173.933 79.1235 174.275 78.998C176.329 79.7402 178.576 79.9301 180.497 79.9301C182.419 79.9301 184.666 79.7385 186.722 78.998C187.064 79.1235 187.403 79.2472 187.745 79.3743Z" fill="#B4CDFD"/>
<path d="M201.283 84.6387C202.004 85.2519 202.441 86.1334 202.858 86.9888C205.072 91.5514 207.29 96.1123 209.469 100.6C209.647 100.964 209.823 101.327 209.999 101.687C207.635 103.708 204.936 105.34 201.929 106.461C201.663 106.117 201.399 105.765 201.145 105.41C200.079 103.928 199.136 102.36 198.328 100.724V100.72C198.459 95.1646 199.018 89.6055 201.286 84.6404L201.283 84.6387Z" fill="#B4CDFD"/>
<g style="mix-blend-mode:multiply" opacity="0.25">
<path d="M198.513 96.7188C198.413 98.0463 198.358 99.3825 198.326 100.719V100.722C199.136 102.36 200.079 103.926 201.143 105.408C201.399 105.764 201.661 106.114 201.927 106.459C203.019 106.051 204.072 105.576 205.082 105.041C203.075 101.605 200.513 98.7083 198.513 96.7188Z" fill="#2950DA"/>
</g>
</g>
<g clip-path="url(#clip4_7256_14428)">
<rect x="175" y="119" width="43.9996" height="43.9996" rx="3.27657" fill="#E7EEFE"/>
<path d="M225.14 180.011C225.135 177.349 225.138 174.664 225.199 171.977C225.41 163.031 226.31 154.077 229.963 146.082C229.943 146.062 229.92 146.048 229.901 146.029C228.956 145.246 227.777 144.808 226.624 144.385C221.269 142.418 215.914 140.452 210.559 138.485C209.762 138.194 208.963 137.902 208.166 137.61C208.068 137.877 207.959 138.138 207.835 138.396C206.963 140.25 205.56 141.852 203.824 142.946C201.686 144.292 198.738 144.497 196.569 144.497H196.429C194.261 144.497 191.31 144.292 189.175 142.946C187.441 141.852 186.036 140.25 185.164 138.396C185.04 138.138 184.931 137.874 184.833 137.607C184.036 137.902 183.236 138.194 182.44 138.488C177.082 140.455 171.727 142.421 166.372 144.388C165.221 144.811 164.043 145.249 163.098 146.031C163.075 146.051 163.053 146.065 163.036 146.085C166.686 154.08 167.589 163.031 167.799 171.977V171.982C167.858 174.67 167.861 177.354 167.855 180.014C167.827 196.284 167.794 212.554 167.766 228.824C167.763 229.565 167.763 230.311 167.763 231.051C177.306 231.988 187.245 231.994 196.426 231.994H196.581C205.762 231.994 215.701 231.988 225.244 231.051C225.244 230.311 225.241 229.565 225.241 228.824C225.211 212.554 225.18 196.284 225.146 180.014L225.14 180.011Z" fill="#B4CDFD"/>
<g style="mix-blend-mode:multiply" opacity="0.25">
<path d="M225.236 228.819C225.206 212.549 225.175 196.279 225.141 180.009C225.135 177.347 225.138 174.662 225.2 171.975C225.25 169.823 225.343 167.672 225.5 165.531C222.532 162.58 220.336 160.866 220.336 160.866C220.336 160.866 218.251 185.126 218.03 201.702C217.864 214.218 218.386 226.356 218.653 231.552C220.857 231.423 223.057 231.26 225.236 231.047C225.236 230.306 225.234 229.56 225.234 228.819H225.236Z" fill="#2950DA"/>
</g>
<path d="M207.842 138.391C206.969 140.245 205.567 141.847 203.83 142.941C201.693 144.287 198.744 144.492 196.576 144.492H196.436C194.267 144.492 191.316 144.287 189.181 142.941C187.448 141.847 186.042 140.245 185.17 138.391C188.738 139.933 192.887 140.621 196.475 140.621H196.537C200.127 140.621 204.276 139.933 207.844 138.391H207.842Z" fill="#D8E4FD"/>
<path d="M208.166 137.604C208.067 137.87 207.958 138.131 207.835 138.389C204.266 139.932 200.117 140.62 196.527 140.62H196.465C192.877 140.62 188.728 139.932 185.16 138.389C185.037 138.131 184.927 137.868 184.829 137.601C185.379 137.399 185.926 137.2 186.476 136.998C189.783 138.193 193.402 138.499 196.496 138.499C199.59 138.499 203.209 138.19 206.519 136.998C207.069 137.2 207.616 137.399 208.166 137.604Z" fill="#B4CDFD"/>
</g>
<rect x="75" y="179" width="94" height="6.63158" rx="3.31579" fill="#E7EEFE"/>
<rect x="75" y="193.368" width="52" height="7" rx="3.5" fill="#E7EEFE"/>
<g filter="url(#filter1_i_7256_14428)">
<path d="M214.739 171.018L188 156.324L197.005 185.001L201.324 173.078L214.739 171.018Z" fill="#48D08C"/>
</g>
<rect x="59" y="43" width="5" height="5" rx="2.5" fill="#D8E4FD"/>
<rect x="68" y="43" width="5" height="5" rx="2.5" fill="#D8E4FD"/>
<rect x="77" y="43" width="5" height="5" rx="2.5" fill="#D8E4FD"/>
</g>
</g>
<defs>
<filter id="filter0_d_7256_14428" x="73" y="69" width="95.999" height="95.999" filterUnits="userSpaceOnUse" color-interpolation-filters="sRGB">
<feFlood flood-opacity="0" result="BackgroundImageFix"/>
<feColorMatrix in="SourceAlpha" type="matrix" values="0 0 0 0 0 0 0 0 0 0 0 0 0 0 0 0 0 0 127 0" result="hardAlpha"/>
<feOffset dx="-1.99998" dy="1.99998"/>
<feComposite in2="hardAlpha" operator="out"/>
<feColorMatrix type="matrix" values="0 0 0 0 0 0 0 0 0 0.745833 0 0 0 0 0.435069 0 0 0 1 0"/>
<feBlend mode="normal" in2="BackgroundImageFix" result="effect1_dropShadow_7256_14428"/>
<feBlend mode="normal" in="SourceGraphic" in2="effect1_dropShadow_7256_14428" result="shape"/>
</filter>
<filter id="filter1_i_7256_14428" x="188" y="156.324" width="26.7393" height="28.6768" filterUnits="userSpaceOnUse" color-interpolation-filters="sRGB">
<feFlood flood-opacity="0" result="BackgroundImageFix"/>
<feBlend mode="normal" in="SourceGraphic" in2="BackgroundImageFix" result="shape"/>
<feColorMatrix in="SourceAlpha" type="matrix" values="0 0 0 0 0 0 0 0 0 0 0 0 0 0 0 0 0 0 127 0" result="hardAlpha"/>
<feOffset dy="1.97387"/>
<feComposite in2="hardAlpha" operator="arithmetic" k2="-1" k3="1"/>
<feColorMatrix type="matrix" values="0 0 0 0 0.568627 0 0 0 0 0.890196 0 0 0 0 0.729412 0 0 0 1 0"/>
<feBlend mode="normal" in2="shape" result="effect1_innerShadow_7256_14428"/>
</filter>
<clipPath id="clip0_7256_14428">
<rect width="248" height="220" rx="4" fill="white"/>
</clipPath>
<clipPath id="clip1_7256_14428">
<path d="M52 43.7113C52 40.0047 55.0047 37 58.7113 37H248.289C251.995 37 255 40.0047 255 43.7113V228H52V43.7113Z" fill="white"/>
</clipPath>
<clipPath id="clip2_7256_14428">
<rect x="75" y="69" width="93.9992" height="93.9992" rx="6.99994" fill="white"/>
</clipPath>
<clipPath id="clip3_7256_14428">
<rect x="175" y="69" width="43.9996" height="43.9996" rx="3.27657" fill="white"/>
</clipPath>
<clipPath id="clip4_7256_14428">
<rect x="175" y="119" width="43.9996" height="43.9996" rx="3.27657" fill="white"/>
</clipPath>
</defs>
</svg>
