<svg width="320" height="168" viewBox="0 0 320 168" fill="none" xmlns="http://www.w3.org/2000/svg">
<g clip-path="url(#clip0_6434_56972)">
<rect y="0.5" width="320" height="167" rx="4" fill="#F0F4FC"/>
<path d="M17 107.5H332.5V283L160.5 312.5L17 107.5Z" fill="#E3EAF3"/>
<path d="M16.9883 52.5C16.9883 49.1863 19.6746 46.5 22.9883 46.5H334.866C338.18 46.5 340.866 49.1863 340.866 52.5V105.227C340.866 108.541 338.18 111.227 334.866 111.227H22.9883C19.6746 111.227 16.9883 108.541 16.9883 105.227V52.5Z" fill="#D8E4FD"/>
<rect x="18.9883" y="48.5" width="323.878" height="60.7271" rx="4" fill="white"/>
<path d="M85.8244 93.0224L87.5979 87.2034H85.5474L81.1692 73.6255H84.5775L87.2099 82.1048L88.1521 85.3745H88.2075L89.1496 82.1048L91.6989 73.6255H95.0796L89.1219 93.0224H85.8244ZM101.84 87.7576C97.8222 87.7576 94.9681 85.0143 94.9681 80.553C94.9681 76.0917 97.8222 73.3484 101.84 73.3484C105.858 73.3484 108.712 76.0917 108.712 80.553C108.712 85.0143 105.858 87.7576 101.84 87.7576ZM98.3487 80.9132C98.3487 83.6565 99.7896 85.0974 101.84 85.0974C103.891 85.0974 105.359 83.6565 105.359 80.9132V80.1928C105.359 77.4495 103.891 76.0086 101.84 76.0086C99.7896 76.0086 98.3487 77.4495 98.3487 80.1928V80.9132ZM114.853 87.7576C112.221 87.7576 110.281 85.9841 110.281 82.5204V73.6255H113.551V82.1879C113.551 84.0444 114.465 85.0143 116.183 85.0143C117.957 85.0143 119.259 83.9613 119.259 81.4397V73.6255H122.529V87.4805H119.314V84.9589C118.428 86.5106 117.07 87.7576 114.853 87.7576ZM124.693 87.4805V73.6255H127.88V76.1194C128.767 74.152 130.152 73.487 131.815 73.487H132.397V76.729H130.568C128.822 76.729 127.963 77.4772 127.963 79.5V87.4805H124.693ZM133.664 87.4805V73.6255H136.851V76.1471C137.738 74.5954 139.068 73.3484 141.284 73.3484C143.945 73.3484 145.995 75.1219 145.995 78.641V87.4805H142.725V78.9735C142.725 77.0893 141.7 76.0917 139.982 76.0917C138.209 76.0917 136.934 77.1447 136.934 79.6663V87.4805H133.664ZM152.037 87.7576C149.238 87.7576 147.77 86.1227 147.77 84.0444C147.77 81.6614 149.654 80.3867 151.788 79.8325L156.36 78.6964V78.447C156.36 76.5905 155.39 75.8977 153.81 75.8977C152.12 75.8977 151.178 76.729 151.123 78.4193H147.825C148.047 75.0664 150.568 73.3484 153.949 73.3484C157.607 73.3484 159.63 75.4267 159.63 78.835V87.4805H156.415V85.1805C155.501 86.8154 154.115 87.7576 152.037 87.7576ZM151.039 83.6288C151.039 84.8203 151.898 85.4022 153.201 85.4022C155.057 85.4022 156.36 84.1553 156.36 82.1325V80.8578L153.062 81.6614C151.677 81.9939 151.039 82.6312 151.039 83.6288ZM161.7 87.4805V73.6255H164.887V76.1471C165.773 74.5954 167.103 73.3484 169.292 73.3484C171.315 73.3484 172.95 74.3737 173.615 76.4242C174.474 74.7339 175.943 73.3484 178.27 73.3484C180.903 73.3484 182.87 75.1219 182.87 78.641V87.4805H179.601V78.9735C179.601 77.0893 178.658 76.0917 176.968 76.0917C175.195 76.0917 173.92 77.1447 173.92 79.6663V87.4805H170.65V78.9735C170.65 77.0893 169.708 76.0917 167.99 76.0917C166.217 76.0917 164.97 77.1447 164.97 79.6663V87.4805H161.7ZM191.498 87.7576C187.37 87.7576 184.46 85.0143 184.46 80.553C184.46 76.0917 187.342 73.3484 191.36 73.3484C195.239 73.3484 197.899 75.9254 197.899 80.553V81.412H187.841V81.4397C187.841 83.7119 189.282 85.2083 191.498 85.2083C193.216 85.2083 194.214 84.3215 194.519 83.2131H197.705C197.179 85.901 194.879 87.7576 191.498 87.7576ZM187.841 79.1675H194.602C194.602 77.2001 193.3 75.8977 191.305 75.8977C189.393 75.8977 188.007 77.117 187.841 79.1675ZM198.414 87.4805V83.8228H202.182V87.4805H198.414ZM203.984 87.4805V67.7787H207.253V84.7649H208.5V87.4805H203.984ZM209.816 87.4805V73.6255H213.085V87.4805H209.816ZM209.732 71.4642H213.168V68.1667H209.732V71.4642ZM215.215 87.4805V73.6255H218.401V76.1471C219.288 74.5954 220.618 73.3484 222.835 73.3484C225.495 73.3484 227.546 75.1219 227.546 78.641V87.4805H224.276V78.9735C224.276 77.0893 223.251 76.0917 221.533 76.0917C219.759 76.0917 218.484 77.1447 218.484 79.6663V87.4805H215.215ZM237.855 87.4805L232.895 81.0518V87.4805H229.625V67.7787H232.895V79.6386L237.827 73.6255H241.956L236.109 80.2759L242.094 87.4805H237.855ZM242.09 88.5889L251.318 67.7787H254.92L245.693 88.5889H242.09ZM254.846 87.4805V73.6255H258.033V76.1194C258.92 74.152 260.305 73.487 261.968 73.487H262.55V76.729H260.721C258.975 76.729 258.116 77.4772 258.116 79.5V87.4805H254.846ZM263.402 84.3215L270.606 76.3965H263.402V73.6255H273.987V76.7845L266.782 84.7095H274.181V87.4805H263.402V84.3215ZM275.792 93.0224V73.6255H278.979V76.0917C279.921 74.346 281.445 73.3484 283.496 73.3484C286.71 73.3484 289.315 75.8146 289.315 80.553C289.315 85.2914 286.71 87.7576 283.496 87.7576C281.5 87.7576 280.004 86.8154 279.062 85.1528V93.0224H275.792ZM279.062 81.1903C279.062 83.5734 280.309 85.0974 282.47 85.0974C284.604 85.0974 285.962 83.6565 285.962 80.9132V80.2205C285.962 77.3941 284.604 75.8977 282.47 75.8977C280.309 75.8977 279.062 77.4495 279.062 79.9434V81.1903Z" fill="#305EFF"/>
<path d="M80.7812 90.9442H290.174V92.3297H80.7812V90.9442Z" fill="#305EFF"/>
<g filter="url(#filter0_d_6434_56972)">
<circle cx="49.3503" cy="78.862" r="19.7097" fill="#48D08C"/>
</g>
<path d="M49.4582 90.3948C42.6693 90.3948 38.0417 85.7949 38.0417 79.3662C38.0417 72.3556 43.1681 66.7859 50.2064 66.7859C56.4134 66.7859 61.3458 71.081 61.3458 77.0663C61.3458 81.5553 58.5194 85.213 53.5316 85.213H51.3979L51.7859 83.1071C50.8991 84.3817 49.5413 85.213 47.7679 85.213C45.3294 85.213 43.1681 83.689 43.1681 79.8096C43.1681 76.2904 44.9692 72.0508 49.2088 72.0508C51.2871 72.0508 52.6449 73.1315 53.2268 74.9326L53.6701 72.3279H56.7459L54.8616 83.1348C57.6881 82.83 59.1844 80.1421 59.1844 77.1494C59.1844 72.1339 55.111 68.8088 50.2064 68.8088C44.4704 68.8088 40.1754 73.4917 40.1754 79.2831C40.1754 84.6311 43.944 88.3442 49.5413 88.3442C51.7859 88.3442 54.3352 87.79 56.5797 86.5985V88.7876C54.3629 89.896 51.7859 90.3948 49.4582 90.3948ZM46.327 79.5048C46.327 81.583 47.2691 82.5806 48.904 82.5806C51.6196 82.5806 52.5894 79.671 52.5894 77.8699C52.5894 75.8471 51.5088 74.7387 49.9293 74.7387C47.4908 74.7387 46.327 77.3157 46.327 79.5048Z" fill="#F5F8FF"/>
<g filter="url(#filter1_i_6434_56972)">
<path d="M233.417 123.088L196.557 102.832L208.971 142.364L214.924 125.928L233.417 123.088Z" fill="#B4CDFD"/>
</g>
</g>
<defs>
<filter id="filter0_d_6434_56972" x="27.6406" y="59.1523" width="41.4199" height="40.418" filterUnits="userSpaceOnUse" color-interpolation-filters="sRGB">
<feFlood flood-opacity="0" result="BackgroundImageFix"/>
<feColorMatrix in="SourceAlpha" type="matrix" values="0 0 0 0 0 0 0 0 0 0 0 0 0 0 0 0 0 0 127 0" result="hardAlpha"/>
<feOffset dx="-2" dy="1"/>
<feComposite in2="hardAlpha" operator="out"/>
<feColorMatrix type="matrix" values="0 0 0 0 0 0 0 0 0 0.529412 0 0 0 0 0.309804 0 0 0 1 0"/>
<feBlend mode="normal" in2="BackgroundImageFix" result="effect1_dropShadow_6434_56972"/>
<feBlend mode="normal" in="SourceGraphic" in2="effect1_dropShadow_6434_56972" result="shape"/>
</filter>
<filter id="filter1_i_6434_56972" x="196.557" y="102.832" width="36.8613" height="39.5312" filterUnits="userSpaceOnUse" color-interpolation-filters="sRGB">
<feFlood flood-opacity="0" result="BackgroundImageFix"/>
<feBlend mode="normal" in="SourceGraphic" in2="BackgroundImageFix" result="shape"/>
<feColorMatrix in="SourceAlpha" type="matrix" values="0 0 0 0 0 0 0 0 0 0 0 0 0 0 0 0 0 0 127 0" result="hardAlpha"/>
<feOffset dy="2.72103"/>
<feComposite in2="hardAlpha" operator="arithmetic" k2="-1" k3="1"/>
<feColorMatrix type="matrix" values="0 0 0 0 0.458824 0 0 0 0 0.639216 0 0 0 0 1 0 0 0 1 0"/>
<feBlend mode="normal" in2="shape" result="effect1_innerShadow_6434_56972"/>
</filter>
<clipPath id="clip0_6434_56972">
<rect y="0.5" width="320" height="167" rx="4" fill="white"/>
</clipPath>
</defs>
</svg>
