<svg width="248" height="220" viewBox="0 0 248 220" fill="none" xmlns="http://www.w3.org/2000/svg">
<g clip-path="url(#clip0_7256_14630)">
<rect width="248" height="220" rx="4" fill="#F5F8FF"/>
<rect x="51" y="36" width="145.756" height="249" rx="13" fill="#4D7FFF"/>
<g clip-path="url(#clip1_7256_14630)">
<rect x="55" y="39.7637" width="138" height="243.471" rx="9.85714" fill="white"/>
<path d="M81.9033 39.7637H161.722C161.722 46.3761 156.362 51.7365 149.749 51.7365H93.8761C87.2637 51.7365 81.9033 46.3761 81.9033 39.7637Z" fill="#4D7FFF"/>
<circle cx="92.8785" cy="42.7569" r="2.99321" fill="#B4CDFD"/>
<rect x="101.858" y="39.7637" width="41.9049" height="5.98641" rx="2.99321" fill="#75A3FF"/>
<rect opacity="0.34" width="123" height="515" rx="3" transform="matrix(-1 8.74228e-08 8.74228e-08 1 185 60)" fill="#D8E4FD"/>
<path d="M124 196C139.464 196 152 183.464 152 168C152 152.536 139.464 140 124 140C108.536 140 96 152.536 96 168C96 183.464 108.536 196 124 196ZM128.201 156.8C129.118 158.021 129.775 159.448 130.09 161H135.2V165.2H130.09C129.117 169.993 124.88 173.6 119.8 173.6H119.27L129.685 184.015L126.715 186.985L112.8 173.07V169.4H119.8C122.543 169.4 124.877 167.647 125.742 165.2H112.8V161H125.742C124.877 158.553 122.543 156.8 119.8 156.8H112.8V152.6H135.2V156.8H128.201Z" fill="#D8E4FD"/>
</g>
<g filter="url(#filter0_d_7256_14630)">
<rect x="15" y="102" width="218" height="49" rx="2.58" fill="white"/>
<path d="M76.0765 133.891V122.707H78.6488V124.72C79.3646 123.132 80.483 122.595 81.8251 122.595H82.2948V125.212H80.8185C79.4093 125.212 78.7159 125.816 78.7159 127.449V133.891H76.0765ZM82.9826 131.341L88.7983 124.943H82.9826V122.707H91.5271V125.257L85.7115 131.654H91.6837V133.891H82.9826V131.341ZM92.9844 138.364V122.707H95.5567V124.697C96.3172 123.288 97.5474 122.483 99.2027 122.483C101.797 122.483 103.9 124.474 103.9 128.299C103.9 132.124 101.797 134.114 99.2027 134.114C97.5922 134.114 96.3843 133.354 95.6238 132.012V138.364H92.9844ZM95.6238 128.813C95.6238 130.737 96.6304 131.967 98.3751 131.967C100.097 131.967 101.193 130.804 101.193 128.589V128.03C101.193 125.749 100.097 124.541 98.3751 124.541C96.6304 124.541 95.6238 125.793 95.6238 127.807V128.813ZM104.391 133.891V130.938H107.433V133.891H104.391ZM108.887 133.891V122.707H111.527V133.891H108.887ZM108.82 120.962H111.594V118.3H108.82V120.962ZM118.39 134.114C115.147 134.114 112.843 131.9 112.843 128.299C112.843 124.697 115.147 122.483 118.39 122.483C121.634 122.483 123.938 124.697 123.938 128.299C123.938 131.9 121.634 134.114 118.39 134.114ZM115.572 128.589C115.572 130.804 116.735 131.967 118.39 131.967C120.046 131.967 121.231 130.804 121.231 128.589V128.008C121.231 125.793 120.046 124.63 118.39 124.63C116.735 124.63 115.572 125.793 115.572 128.008V128.589ZM124.029 134.785L131.477 117.987H134.385L126.937 134.785H124.029ZM135.599 133.891V131.453H139.625V121.588L135.599 123.691V120.895L139.894 118.68H142.265V131.453H145.866V133.891H135.599ZM152.701 134.114C149.368 134.114 147.086 131.788 147.086 126.957V126.062C147.086 120.984 149.346 118.457 152.723 118.457C155.81 118.457 157.689 120.537 157.845 123.042H155.161C155.072 121.588 154.065 120.716 152.678 120.716C150.777 120.716 149.748 122.304 149.748 125.838V126.42C150.33 125.1 151.672 124.295 153.372 124.295C156.011 124.295 158.047 126.174 158.047 129.059C158.047 131.989 155.877 134.114 152.701 134.114ZM149.86 128.97C149.86 130.446 150.822 131.855 152.678 131.855C154.244 131.855 155.385 130.871 155.385 129.149C155.385 127.449 154.289 126.375 152.567 126.375C150.934 126.375 149.86 127.426 149.86 128.97ZM159.737 133.891V131.453H163.763V121.588L159.737 123.691V120.895L164.032 118.68H166.403V131.453H170.004V133.891H159.737ZM171.582 133.891V118.68H176.302L180.306 132.325L184.31 118.68H188.918V133.891H186.301V123.087L186.345 120.336H186.278L185.54 122.975L182.274 133.891H178.136L174.848 122.975L174.11 120.336H174.043L174.088 123.087V133.891H171.582ZM192.562 133.891L198.243 121.119H190.527V118.68H201.353V120.336L195.492 133.891H192.562ZM207.964 134.114C204.676 134.114 202.35 131.654 202.35 126.509V126.062C202.35 120.917 204.676 118.457 207.964 118.457C211.252 118.457 213.601 120.917 213.601 126.062V126.509C213.601 131.654 211.252 134.114 207.964 134.114ZM205.034 126.733C205.034 130.021 206.063 131.721 207.964 131.721C209.865 131.721 210.917 130.021 210.917 126.733V125.838C210.917 122.55 209.865 120.85 207.964 120.85C206.063 120.85 205.034 122.55 205.034 125.838V126.733Z" fill="#305EFF"/>
<path d="M74.9805 136.687H214.227V137.805H74.9805V136.687Z" fill="#305EFF"/>
<g filter="url(#filter1_d_7256_14630)">
<circle cx="49.6102" cy="126.5" r="15.91" fill="#48D08C"/>
</g>
<g clip-path="url(#clip2_7256_14630)">
<path d="M51.26 130.38L47.255 134.385C46.882 134.758 46.4468 135.047 45.9612 135.244C45.4925 135.434 44.9976 135.53 44.4902 135.53C43.9827 135.53 43.4878 135.433 43.0191 135.244C42.5335 135.047 42.0983 134.758 41.7253 134.385C41.3523 134.012 41.0633 133.576 40.8665 133.091C40.6765 132.622 40.5801 132.128 40.5801 131.62C40.5801 131.113 40.6765 130.618 40.8665 130.149C41.0635 129.664 41.3523 129.228 41.7253 128.855L45.7303 124.85C45.967 124.614 46.2288 124.411 46.5128 124.244C46.6762 124.148 46.8468 124.063 47.0241 123.992C47.4928 123.801 47.9875 123.705 48.495 123.705C48.8726 123.705 49.2434 123.759 49.6014 123.864C49.7245 123.9 49.8461 123.943 49.966 123.992C50.4514 124.188 50.8869 124.477 51.2598 124.85C51.6328 125.223 51.9219 125.659 52.1186 126.144C52.1671 126.264 52.2098 126.386 52.246 126.509L52.0472 126.708C51.6988 127.056 51.2464 127.238 50.7891 127.253C50.7157 126.784 50.4988 126.333 50.1379 125.972C49.7771 125.611 49.3262 125.394 48.8568 125.321C48.1479 125.21 47.3971 125.427 46.8522 125.972L42.8472 129.977C41.9412 130.883 41.9412 132.357 42.8472 133.263C43.753 134.169 45.227 134.169 46.1329 133.263L49.7556 129.64C50.0721 129.712 50.3962 129.749 50.725 129.749C51.1138 129.749 51.4959 129.698 51.8665 129.598C51.6996 129.882 51.4967 130.143 51.26 130.38V130.38Z" fill="white"/>
<path d="M58.6403 121.381C58.6403 121.888 58.5441 122.383 58.3541 122.852C58.1571 123.337 57.8683 123.773 57.4951 124.146L53.4903 128.151C53.2535 128.387 52.9916 128.59 52.7078 128.757C52.5446 128.853 52.3738 128.938 52.1964 129.01C51.728 129.2 51.233 129.296 50.7256 129.296C50.348 129.296 49.9772 129.243 49.6192 129.137C49.4961 129.101 49.3745 129.058 49.2546 129.01C48.769 128.813 48.3337 128.524 47.9608 128.151C47.5878 127.778 47.2987 127.342 47.102 126.857C47.0533 126.737 47.0108 126.615 46.9746 126.492L47.1734 126.293C47.5216 125.945 47.9742 125.763 48.4313 125.748C48.5047 126.217 48.7218 126.668 49.0827 127.029C49.4435 127.39 49.8944 127.607 50.3638 127.68C51.0727 127.791 51.8235 127.574 52.3684 127.029L56.3734 123.024C57.2793 122.118 57.2792 120.644 56.3734 119.738C55.4676 118.832 53.9936 118.832 53.0877 119.738L49.4651 123.361C49.1487 123.289 48.8248 123.252 48.4958 123.252C48.1071 123.252 47.7248 123.303 47.3545 123.403C47.5214 123.119 47.7243 122.858 47.9609 122.621L51.9659 118.616C52.3389 118.243 52.7742 117.954 53.2598 117.757C53.7284 117.567 54.2232 117.471 54.7306 117.471C55.2381 117.471 55.733 117.567 56.2016 117.757C56.6872 117.954 57.1225 118.243 57.4955 118.616C57.8685 118.989 58.1575 119.424 58.3544 119.91C58.5445 120.378 58.6407 120.873 58.6407 121.381L58.6403 121.381Z" fill="white"/>
</g>
</g>
</g>
<defs>
<filter id="filter0_d_7256_14630" x="15" y="102" width="218" height="52" filterUnits="userSpaceOnUse" color-interpolation-filters="sRGB">
<feFlood flood-opacity="0" result="BackgroundImageFix"/>
<feColorMatrix in="SourceAlpha" type="matrix" values="0 0 0 0 0 0 0 0 0 0 0 0 0 0 0 0 0 0 127 0" result="hardAlpha"/>
<feOffset dy="3"/>
<feComposite in2="hardAlpha" operator="out"/>
<feColorMatrix type="matrix" values="0 0 0 0 0.847059 0 0 0 0 0.894118 0 0 0 0 0.992157 0 0 0 1 0"/>
<feBlend mode="normal" in2="BackgroundImageFix" result="effect1_dropShadow_7256_14630"/>
<feBlend mode="normal" in="SourceGraphic" in2="effect1_dropShadow_7256_14630" result="shape"/>
</filter>
<filter id="filter1_d_7256_14630" x="31.9802" y="110.59" width="33.5403" height="33.5403" filterUnits="userSpaceOnUse" color-interpolation-filters="sRGB">
<feFlood flood-opacity="0" result="BackgroundImageFix"/>
<feColorMatrix in="SourceAlpha" type="matrix" values="0 0 0 0 0 0 0 0 0 0 0 0 0 0 0 0 0 0 127 0" result="hardAlpha"/>
<feOffset dx="-1.72" dy="1.72"/>
<feComposite in2="hardAlpha" operator="out"/>
<feColorMatrix type="matrix" values="0 0 0 0 0 0 0 0 0 0.529412 0 0 0 0 0.309804 0 0 0 1 0"/>
<feBlend mode="normal" in2="BackgroundImageFix" result="effect1_dropShadow_7256_14630"/>
<feBlend mode="normal" in="SourceGraphic" in2="effect1_dropShadow_7256_14630" result="shape"/>
</filter>
<clipPath id="clip0_7256_14630">
<rect width="248" height="220" rx="4" fill="white"/>
</clipPath>
<clipPath id="clip1_7256_14630">
<rect x="55" y="39.7637" width="138" height="243.471" rx="9.85714" fill="white"/>
</clipPath>
<clipPath id="clip2_7256_14630">
<rect width="18.06" height="18.06" fill="white" transform="translate(40.5801 117.471)"/>
</clipPath>
</defs>
</svg>
