<svg width="14" height="14" viewBox="0 0 14 14" fill="none" xmlns="http://www.w3.org/2000/svg">
<path d="M13.5625 11.3498C13.5625 12.6384 12.5178 13.6831 11.2292 13.6831H2.77083C1.48217 13.6831 0.4375 12.6384 0.4375 11.3498V5.53514C0.4375 5.443 0.482617 5.37061 0.540039 5.37061H13.46C13.5174 5.37061 13.5625 5.443 13.5625 5.53514V11.3498Z" fill="#FFEFE5"/>
<path d="M0 4.43135C0 3.85145 0.470101 3.38135 1.05 3.38135H12.95C13.5299 3.38135 14 3.85145 14 4.43135C14 4.57632 13.8825 4.69385 13.7375 4.69385H0.2625C0.117525 4.69385 0 4.57632 0 4.43135Z" fill="#FFEFE5"/>
<path d="M6.5409 13.6831L7.4375 13.6831L7.4375 5.37061L6.5409 5.37061L6.5409 13.6831Z" fill="#F19E62"/>
<path d="M9.74609 0.313477C9.84579 0.313477 9.96636 0.317594 10.085 0.338867C10.1446 0.349578 10.2316 0.369969 10.3262 0.410156C10.4148 0.447901 10.5715 0.52852 10.7021 0.695312C10.8538 0.888856 10.9179 1.1313 10.8887 1.36816C10.8634 1.57198 10.7759 1.71815 10.7236 1.79297C10.6235 1.93623 10.4992 2.03056 10.4443 2.07129C10.3139 2.16815 10.1444 2.26559 10.0029 2.34473C9.92896 2.3861 9.86121 2.4234 9.79297 2.46094C9.70197 2.51099 9.60959 2.56213 9.5 2.62402C9.13798 2.82849 8.79637 3.04014 8.55176 3.25293C8.35188 3.42684 8.31496 3.51581 8.31055 3.52148C8.31034 3.51952 8.3125 3.5076 8.3125 3.48633H7.4375C7.43783 2.78547 8.53199 2.15789 9.2959 1.73633C9.32472 1.72042 9.35305 1.70476 9.38086 1.68945C9.51938 1.61318 9.64415 1.54385 9.74609 1.4834C10.0628 1.29559 10.1573 1.18848 9.74609 1.18848C9.53833 1.18848 9.33706 1.21628 9.14551 1.26758C8.16214 1.53094 7.43765 2.42469 7.4375 3.48633H6.98633C6.99437 3.58159 7 3.67807 7 3.77539H6.02832C6.02832 2.61707 5.22319 1.64085 4.13086 1.35352C3.91819 1.2976 3.69453 1.26857 3.46387 1.26855C3.0071 1.26855 3.11209 1.38495 3.46387 1.58984C3.57702 1.65575 3.71541 1.73131 3.86914 1.81445C3.9 1.83114 3.93188 1.8479 3.96387 1.86523C4.81246 2.32519 6.02832 3.01067 6.02832 3.77539H5.05664C5.05666 3.79994 5.05927 3.81264 5.05859 3.81348C5.05612 3.81427 5.02066 3.71658 4.79004 3.51953C4.5184 3.2875 4.1392 3.05693 3.7373 2.83398C3.61559 2.76647 3.51318 2.71086 3.41211 2.65625C3.3362 2.61523 3.26099 2.5745 3.17871 2.5293C3.02153 2.44295 2.83245 2.33714 2.6875 2.23145C2.62642 2.18689 2.48896 2.08376 2.37793 1.92773C2.31992 1.8462 2.22345 1.68708 2.19531 1.46484C2.1627 1.20633 2.23389 0.941715 2.40234 0.730469C2.54777 0.548136 2.72193 0.460011 2.82031 0.418945C2.92541 0.37509 3.02163 0.35347 3.08789 0.341797C3.21956 0.318617 3.35318 0.313477 3.46387 0.313477C4.93688 0.313539 6.20399 1.19778 6.73438 2.45703C7.16406 1.20864 8.35249 0.313498 9.74609 0.313477Z" fill="#FFEFE5"/>
</svg>
