<svg width="52" height="48" viewBox="0 0 52 48" fill="none" xmlns="http://www.w3.org/2000/svg">
<g clip-path="url(#clip0_6932_1080368)">
<rect width="52" height="48" rx="0.83871" fill="#EDF3FF"/>
<path d="M5.03223 48.6454V18.6616C5.03223 17.7351 5.78323 16.9841 6.70965 16.9841H45.0806C46.007 16.9841 46.758 17.7351 46.758 18.6616V48.6454" stroke="#D8E4FD" stroke-width="0.209677"/>
<path d="M-3.98389 48.6454V9.64544C-3.98389 8.71902 -3.23288 7.96802 -2.30647 7.96802H54.0968C55.0232 7.96802 55.7742 8.71902 55.7742 9.64544V48.6454" stroke="#D8E4FD" stroke-width="0.209677"/>
<path d="M26 4.14844L26 41.1484" stroke="#75A3FF" stroke-width="0.209677"/>
<rect x="12.7227" y="21.7891" width="26.3467" height="22.3548" rx="1.5862" fill="#D8E4FD"/>
<rect x="15.1191" y="24.1841" width="21.5564" height="17.5645" rx="1.5862" fill="white"/>
<path d="M22.3062 30.2302C22.5106 30.2302 22.6722 30.3919 22.6724 30.5916V31.4675C22.8675 32.1718 23.5155 32.6616 24.2388 32.6521L25.9185 32.6472H25.9321C27.3359 32.6472 28.5828 33.5374 29.0444 34.8601C29.046 34.8645 29.046 34.8694 29.0474 34.8738C29.7969 34.917 30.391 35.5373 30.3911 36.2976C30.3911 37.0859 29.7526 37.7251 28.9644 37.7253C28.1759 37.7253 27.5366 37.086 27.5366 36.2976C27.5367 35.7393 27.8575 35.2568 28.3247 35.0222C27.9469 34.0323 26.9947 33.3757 25.9321 33.3757H25.9233L24.2437 33.3806H24.2339C23.6391 33.3806 23.0911 33.1522 22.6724 32.781V34.9197C23.2808 35.083 23.7289 35.6377 23.729 36.2976C23.729 37.086 23.0897 37.7253 22.3013 37.7253C21.5129 37.7253 20.8735 37.086 20.8735 36.2976C20.8736 35.6326 21.3292 35.0752 21.9448 34.9167V30.5916C21.945 30.392 22.1018 30.2304 22.3062 30.2302Z" fill="#B4CDFD"/>
<path d="M22.4201 31.3012C23.2742 31.3012 23.9667 30.6088 23.9667 29.7547C23.9667 28.9006 23.2742 28.2083 22.4201 28.2083C21.566 28.2083 20.8735 28.9006 20.8735 29.7547C20.8735 30.6088 21.566 31.3012 22.4201 31.3012Z" fill="#75A3FF"/>
<g filter="url(#filter0_d_6932_1080368)">
<rect x="19.6289" y="2.60938" width="12.5327" height="12.5327" rx="6.26635" fill="#48D08C"/>
<rect x="20.0989" y="3.07935" width="11.5927" height="11.5927" rx="5.79637" stroke="#DAF5E8" stroke-width="0.939952"/>
<path d="M23.9701 9.29972H24.9985V11.6959C24.9985 12.0486 25.4378 12.215 25.6707 11.9488L28.19 9.08673C28.4097 8.83713 28.2333 8.44776 27.9005 8.44776H26.8721V6.05161C26.8721 5.69885 26.4328 5.53245 26.1999 5.79869L23.6806 8.66075C23.4643 8.91035 23.6407 9.29972 23.9701 9.29972Z" fill="#F5F8FF"/>
</g>
</g>
<defs>
<filter id="filter0_d_6932_1080368" x="19.6289" y="2.60938" width="12.5327" height="13.1593" filterUnits="userSpaceOnUse" color-interpolation-filters="sRGB">
<feFlood flood-opacity="0" result="BackgroundImageFix"/>
<feColorMatrix in="SourceAlpha" type="matrix" values="0 0 0 0 0 0 0 0 0 0 0 0 0 0 0 0 0 0 127 0" result="hardAlpha"/>
<feOffset dy="0.626635"/>
<feComposite in2="hardAlpha" operator="out"/>
<feColorMatrix type="matrix" values="0 0 0 0 0 0 0 0 0 0.745833 0 0 0 0 0.435069 0 0 0 1 0"/>
<feBlend mode="normal" in2="BackgroundImageFix" result="effect1_dropShadow_6932_1080368"/>
<feBlend mode="normal" in="SourceGraphic" in2="effect1_dropShadow_6932_1080368" result="shape"/>
</filter>
<clipPath id="clip0_6932_1080368">
<rect width="52" height="48" rx="0.83871" fill="white"/>
</clipPath>
</defs>
</svg>
