<svg width="248" height="220" viewBox="0 0 248 220" fill="none" xmlns="http://www.w3.org/2000/svg">
<g clip-path="url(#clip0_8411_276884)">
<rect width="248" height="220" rx="4" fill="#F5F8FF"/>
<rect x="176.376" y="155.62" width="154.681" height="283.188" rx="10" transform="rotate(-135 176.376 155.62)" fill="#E6ECF4"/>
<rect x="102" y="120" width="43" height="65" fill="#4D7FFF"/>
<g filter="url(#filter0_d_8411_276884)">
<g clip-path="url(#clip1_8411_276884)">
<rect x="67" y="42" width="113.36" height="113.36" rx="6" fill="white"/>
<path d="M94.4182 106.874V110.063H97.607V106.874V103.68H94.4182V106.874Z" fill="#00BE6F"/>
<path d="M97.607 87.7332H94.4182V90.922H97.607V87.7332Z" fill="#00BE6F"/>
<path d="M117.316 122.848H114.127V126.037H117.316V122.848Z" fill="#00BE6F"/>
<path d="M97.607 94.1115V97.3003H94.4182V100.489H97.607V103.678H100.796H103.99V106.872H107.179V103.678H110.367V100.489V97.3003H107.179V100.489H103.99H100.796V97.3003V94.1115V90.9227H97.607V94.1115Z" fill="#00BE6F"/>
<path d="M103.989 87.7332H100.795V90.922H103.989H107.177V87.7332H103.989Z" fill="#00BE6F"/>
<path d="M118.341 113.375H120.051V110.187H118.341H116.625V113.375H118.341Z" fill="#00BE6F"/>
<path d="M110.367 90.9227H107.178V94.1115H110.367V90.9227Z" fill="#00BE6F"/>
<path d="M132.694 103.68H129.505V106.869H132.694V103.68Z" fill="#00BE6F"/>
<path d="M135.883 68.5986H132.694V71.7874H135.883V68.5986Z" fill="#00BE6F"/>
<path d="M116.744 94.1133V90.9245H119.933V87.7357H116.744V84.5469H113.555V87.7357H110.367V90.9245H113.555V94.1133V97.3021V100.491V103.68H116.744V100.491V97.3021H119.933V94.1133H116.744Z" fill="#00BE6F"/>
<path d="M132.694 126.008H135.883V122.819H132.694H129.505V126.008H132.694Z" fill="#00BE6F"/>
<path d="M129.505 68.5986H126.316V71.7874H129.505V68.5986Z" fill="#00BE6F"/>
<path d="M128.706 94.1108V90.922H125.517V87.7332H122.329V90.922V94.1108H119.14V97.2996H122.329H125.517V94.1108H128.706Z" fill="#00BE6F"/>
<path d="M146.706 87.7332H143.517V90.922H146.706V87.7332Z" fill="#00BE6F"/>
<path d="M113.649 103.68H110.46V106.869H113.649V103.68Z" fill="#00BE6F"/>
<path d="M126.316 84.5484V81.3596H129.505V78.1657H132.694H135.883V74.9769H132.694V71.7881H129.505V74.9769H126.316V78.1657H123.122V81.3596H119.934V84.5484H123.122H126.316Z" fill="#00BE6F"/>
<path d="M126.317 106.874V103.68H129.505V100.491H126.317H123.123V103.68H119.934V106.874H123.123H126.317Z" fill="#00BE6F"/>
<path d="M135.882 119.63V116.436H132.694H129.505V113.247H126.316V116.436H123.122V119.63H119.933H116.744V122.819H119.933H123.122H126.316V119.63H129.505V122.819H132.694V119.63H135.882Z" fill="#00BE6F"/>
<path d="M123.122 71.7874V68.5986H119.933H116.744V71.7874H113.556V74.9762H116.744H119.933V71.7874H123.122Z" fill="#00BE6F"/>
<path d="M123.122 74.9775H119.934V78.1663H123.122V74.9775Z" fill="#00BE6F"/>
<path d="M131.097 87.735H127.908V90.9238V94.1126V97.3014H131.097H134.286V94.1126H131.097V90.9238H134.286V87.735H137.475V84.5462H134.286V81.3574H131.097V84.5462V87.735Z" fill="#00BE6F"/>
<path d="M119.933 78.163H116.744V81.3518H119.933V78.163Z" fill="#00BE6F"/>
<path d="M129.505 110.061V113.25H132.694H135.883V110.061H139.072H142.261V106.872H139.072H135.883H132.694V110.061H129.505Z" fill="#00BE6F"/>
<path d="M146.706 97.3016H143.517V100.49H146.706V97.3016Z" fill="#00BE6F"/>
<path d="M135.883 100.491H132.694V103.68H135.883V100.491Z" fill="#00BE6F"/>
<path d="M143.857 90.9229H140.669H137.475V94.1116H140.669V97.3004H143.857V94.1116V90.9229Z" fill="#00BE6F"/>
<path d="M142.26 100.491H139.071V103.68H142.26V100.491Z" fill="#00BE6F"/>
<path d="M107.178 119.692H116.75V106.87H103.928V110.064H100.801V113.253H103.928V116.441H100.801V119.63H103.928V119.692H103.989V122.819H100.801V129.197H103.989V125.998H107.178V119.692ZM114.292 109.322V117.297H106.318V109.322H114.292Z" fill="#00BE6F"/>
<path d="M148.638 106.874H151.826V103.68H148.638H145.449H142.26V106.874H145.449H148.638Z" fill="#00BE6F"/>
<path d="M148.638 94.1108H151.827V90.922V87.7332H148.638V90.922V94.1108Z" fill="#00BE6F"/>
<path d="M123.246 110.187H120.052V113.375V116.564H123.246V113.375V110.187Z" fill="#00BE6F"/>
<path d="M155.015 106.872H151.826V110.061H155.015V106.872Z" fill="#00BE6F"/>
<path d="M155.02 100.49V97.3016H151.826V100.49V103.679H155.02V100.49Z" fill="#00BE6F"/>
<path d="M97.6068 122.819H94.418V126.008V129.197H97.6068V126.008V122.819Z" fill="#00BE6F"/>
<path d="M155.021 84.5479V68.5781H139.051V84.5479H155.021ZM141.462 82.1524V70.989H152.625V82.1524H141.462Z" fill="#00BE6F"/>
<path d="M150.235 73.3838H143.857V79.7614H150.235V73.3838Z" fill="#00BE6F"/>
<path d="M155.021 113.251H139.051V129.195H155.021V113.251ZM141.462 126.805V115.641H152.625V126.805H141.462Z" fill="#00BE6F"/>
<path d="M150.235 118.03H143.857V124.408H150.235V118.03Z" fill="#00BE6F"/>
<path d="M94.3823 68.5986V84.5684H110.316V68.5986H94.3823ZM107.936 70.9889V82.1523H96.7726V70.9889H107.936Z" fill="#00BE6F"/>
<path d="M105.54 73.3838H99.1621V79.7614H105.54V73.3838Z" fill="#00BE6F"/>
<path d="M89.8331 79.7166V68.3833C89.7606 67.3434 90.0804 66.3141 90.7294 65.4984C91.118 65.0694 91.5966 64.7315 92.1309 64.5089C92.6652 64.2863 93.2421 64.1844 93.8204 64.2105H105.731C105.825 64.2105 105.915 64.1731 105.982 64.1064C106.049 64.0398 106.086 63.9494 106.086 63.8551C106.086 63.7608 106.049 63.6704 105.982 63.6037C105.915 63.5371 105.825 63.4996 105.731 63.4996H93.9646C92.9682 63.4496 91.9796 63.699 91.1261 64.2157C90.5127 64.6242 90.0088 65.1768 89.6585 65.8253C89.3082 66.4737 89.1223 67.1981 89.117 67.9351C89.0861 69.8 89.117 71.67 89.117 73.5297V79.7115C89.1275 79.7991 89.1698 79.8797 89.2358 79.9382C89.3017 79.9968 89.3869 80.0291 89.475 80.0291C89.5632 80.0291 89.6484 79.9968 89.7143 79.9382C89.7803 79.8797 89.8225 79.7991 89.8331 79.7115V79.7166Z" fill="#00BE6F"/>
<path d="M104.7 134.585H93.3668C92.3273 134.655 91.2989 134.335 90.482 133.689C90.0535 133.3 89.716 132.821 89.4934 132.287C89.2709 131.752 89.1687 131.176 89.1941 130.598V118.672C89.1941 118.578 89.1567 118.487 89.09 118.421C89.0233 118.354 88.9329 118.316 88.8387 118.316C88.7444 118.316 88.654 118.354 88.5873 118.421C88.5206 118.487 88.4832 118.578 88.4832 118.672V130.453C88.4338 131.45 88.6832 132.438 89.1993 133.292C89.6077 133.905 90.1604 134.408 90.809 134.758C91.4575 135.107 92.182 135.292 92.9187 135.296C94.7835 135.327 96.6484 135.296 98.5132 135.296H104.695C104.789 135.296 104.88 135.258 104.946 135.192C105.013 135.125 105.051 135.035 105.051 134.94C105.051 134.846 105.013 134.756 104.946 134.689C104.88 134.622 104.789 134.585 104.695 134.585H104.7Z" fill="#00BE6F"/>
<path d="M159.224 118.558V129.892C159.296 130.932 158.977 131.961 158.327 132.777C157.939 133.206 157.461 133.544 156.926 133.767C156.392 133.989 155.815 134.091 155.237 134.065H143.311C143.217 134.065 143.126 134.102 143.059 134.169C142.993 134.235 142.955 134.326 142.955 134.42C142.955 134.514 142.993 134.605 143.059 134.671C143.126 134.738 143.217 134.776 143.311 134.776H155.092C156.089 134.826 157.077 134.576 157.931 134.059C158.544 133.651 159.047 133.098 159.397 132.45C159.746 131.801 159.931 131.077 159.935 130.34C159.971 128.475 159.935 126.61 159.935 124.745V118.564C159.935 118.469 159.897 118.379 159.831 118.312C159.764 118.246 159.674 118.208 159.579 118.208C159.485 118.208 159.395 118.246 159.328 118.312C159.261 118.379 159.224 118.469 159.224 118.564V118.558Z" fill="#00BE6F"/>
<path d="M143.517 64.2149H154.851C155.891 64.1438 156.921 64.4655 157.736 65.1164C158.166 65.5039 158.505 65.9822 158.728 66.5168C158.95 67.0514 159.051 67.6289 159.023 68.2073V80.1486C159.023 80.2428 159.061 80.3332 159.128 80.3999C159.194 80.4666 159.285 80.504 159.379 80.504C159.473 80.504 159.564 80.4666 159.63 80.3999C159.697 80.3332 159.734 80.2428 159.734 80.1486V68.3516C159.784 67.3535 159.535 66.3632 159.018 65.5079C158.61 64.8948 158.057 64.3914 157.409 64.042C156.76 63.6926 156.036 63.5078 155.299 63.504C153.434 63.4731 151.569 63.504 149.704 63.504H143.522C143.428 63.504 143.338 63.5414 143.271 63.6081C143.204 63.6747 143.167 63.7652 143.167 63.8594C143.167 63.9537 143.204 64.0441 143.271 64.1108C143.338 64.1774 143.428 64.2149 143.522 64.2149H143.517Z" fill="#00BE6F"/>
<rect opacity="0.62" x="-15.4727" y="185.529" width="19.1309" height="244.661" transform="rotate(-135 -15.4727 185.529)" fill="#B4CDFD" fill-opacity="0.4"/>
</g>
<rect x="69.18" y="44.18" width="109" height="109" rx="3.82" stroke="#4D7FFF" stroke-width="4.36"/>
</g>
<rect x="67" y="185" width="113" height="5" fill="#4D7FFF"/>
<path d="M122.795 165.672L122.133 168.798L126.733 165.654L124.266 177.514L127.436 177.517L131.08 160L122.795 165.672Z" fill="#B4CDFD"/>
<path d="M118.037 172.532L117 177.518H123.498C123.498 177.518 125.595 167.378 125.596 167.375C125.593 167.377 118.037 172.532 118.037 172.532Z" fill="#B4CDFD"/>
</g>
<defs>
<filter id="filter0_d_8411_276884" x="67" y="38" width="117.36" height="117.36" filterUnits="userSpaceOnUse" color-interpolation-filters="sRGB">
<feFlood flood-opacity="0" result="BackgroundImageFix"/>
<feColorMatrix in="SourceAlpha" type="matrix" values="0 0 0 0 0 0 0 0 0 0 0 0 0 0 0 0 0 0 127 0" result="hardAlpha"/>
<feOffset dx="4" dy="-4"/>
<feComposite in2="hardAlpha" operator="out"/>
<feColorMatrix type="matrix" values="0 0 0 0 0.458824 0 0 0 0 0.639216 0 0 0 0 1 0 0 0 1 0"/>
<feBlend mode="normal" in2="BackgroundImageFix" result="effect1_dropShadow_8411_276884"/>
<feBlend mode="normal" in="SourceGraphic" in2="effect1_dropShadow_8411_276884" result="shape"/>
</filter>
<clipPath id="clip0_8411_276884">
<rect width="248" height="220" rx="4" fill="white"/>
</clipPath>
<clipPath id="clip1_8411_276884">
<rect x="67" y="42" width="113.36" height="113.36" rx="6" fill="white"/>
</clipPath>
</defs>
</svg>
