<svg width="24" height="24" viewBox="0 0 24 24" fill="none" xmlns="http://www.w3.org/2000/svg">
<rect width="24" height="24" rx="12" fill="#305EFF" fill-opacity="0.09"/>
<path d="M9.04901 16V14.858L12.0788 11.8878C12.3686 11.5952 12.6101 11.3352 12.8033 11.108C12.9964 10.8807 13.1413 10.6605 13.2379 10.4474C13.3345 10.2344 13.3828 10.0071 13.3828 9.76562C13.3828 9.49006 13.3203 9.25426 13.1953 9.05824C13.0703 8.85938 12.8984 8.70597 12.6797 8.59801C12.4609 8.49006 12.2124 8.43608 11.9339 8.43608C11.647 8.43608 11.3956 8.49574 11.1797 8.61506C10.9638 8.73153 10.7962 8.89773 10.6768 9.11364C10.5604 9.32955 10.5021 9.58665 10.5021 9.88494H8.99787C8.99787 9.33097 9.12429 8.84943 9.37713 8.44034C9.62997 8.03125 9.97798 7.71449 10.4212 7.49006C10.8672 7.26562 11.3786 7.15341 11.9553 7.15341C12.5405 7.15341 13.0547 7.26278 13.4979 7.48153C13.9411 7.70028 14.2848 8 14.5291 8.38068C14.7763 8.76136 14.8999 9.19602 14.8999 9.68466C14.8999 10.0114 14.8374 10.3324 14.7124 10.6477C14.5874 10.9631 14.3672 11.3125 14.0518 11.696C13.7393 12.0795 13.3004 12.544 12.7351 13.0895L11.2308 14.6193V14.679H15.032V16H9.04901Z" fill="#768EA7"/>
</svg>
