<svg width="24" height="24" viewBox="0 0 24 24" fill="none" xmlns="http://www.w3.org/2000/svg">
<rect width="24" height="24" rx="12" fill="#305EFF" fill-opacity="0.09"/>
<path d="M11.9995 16.1193C11.3858 16.1193 10.8404 16.0142 10.3631 15.804C9.88867 15.5937 9.51367 15.3011 9.2381 14.9261C8.96254 14.5511 8.81623 14.1179 8.79918 13.6264H10.4015C10.4157 13.8622 10.4938 14.0682 10.6358 14.2443C10.7779 14.4176 10.9668 14.5526 11.2026 14.6491C11.4384 14.7457 11.7026 14.794 11.9952 14.794C12.3077 14.794 12.5847 14.7401 12.8262 14.6321C13.0676 14.5213 13.2566 14.3679 13.3929 14.1719C13.5293 13.9759 13.5961 13.75 13.5932 13.4943C13.5961 13.2301 13.5279 12.9972 13.3887 12.7955C13.2495 12.5937 13.0478 12.4361 12.7836 12.3224C12.5222 12.2088 12.2069 12.152 11.8375 12.152H11.0662V10.9332H11.8375C12.1415 10.9332 12.4071 10.8807 12.6344 10.7756C12.8645 10.6705 13.0449 10.5227 13.1756 10.3324C13.3063 10.1392 13.3702 9.91619 13.3674 9.66335C13.3702 9.41619 13.3148 9.2017 13.2012 9.01989C13.0904 8.83523 12.9327 8.69176 12.7282 8.58949C12.5265 8.48722 12.2892 8.43608 12.0165 8.43608C11.7495 8.43608 11.5023 8.48437 11.275 8.58097C11.0478 8.67756 10.8645 8.81534 10.7253 8.99432C10.5861 9.17045 10.5123 9.38068 10.5037 9.625H8.98242C8.99379 9.13636 9.13441 8.70739 9.4043 8.33807C9.67702 7.96591 10.0407 7.67614 10.4952 7.46875C10.9498 7.25852 11.4597 7.15341 12.025 7.15341C12.6074 7.15341 13.1131 7.26278 13.5421 7.48153C13.9739 7.69744 14.3077 7.98864 14.5435 8.35511C14.7793 8.72159 14.8972 9.12642 14.8972 9.5696C14.9 10.0611 14.7551 10.473 14.4625 10.8054C14.1728 11.1378 13.7921 11.3551 13.3205 11.4574V11.5256C13.9341 11.6108 14.4043 11.8381 14.731 12.2074C15.0605 12.5739 15.2239 13.0298 15.2211 13.5753C15.2211 14.0639 15.0819 14.5014 14.8034 14.8878C14.5279 15.2713 14.1472 15.5724 13.6614 15.7912C13.1784 16.0099 12.6245 16.1193 11.9995 16.1193Z" fill="#768EA7"/>
</svg>
