<svg width="84" height="40" viewBox="0 0 84 40" fill="none" xmlns="http://www.w3.org/2000/svg">
<rect x="26" y="4" width="32" height="32" rx="16" fill="#F1F5FA"/>
<rect x="26.3448" y="4.34483" width="31.3103" height="31.3103" rx="15.6552" stroke="#6C849D" stroke-opacity="0.18" stroke-width="0.689655"/>
<path d="M48.6663 24.6667V26.6667H35.333V24.6667C35.333 24.3 35.633 24 35.9997 24H47.9997C48.3663 24 48.6663 24.3 48.6663 24.6667Z" fill="#B4CDFD" stroke="#B4CDFD" stroke-width="2.07622" stroke-miterlimit="10" stroke-linecap="round" stroke-linejoin="round"/>
<path d="M38.6673 19.334H37.334V24.0007H38.6673V19.334Z" fill="#B4CDFD"/>
<path d="M41.3333 19.334H40V24.0007H41.3333V19.334Z" fill="#B4CDFD"/>
<path d="M44.0003 19.334H42.667V24.0007H44.0003V19.334Z" fill="#B4CDFD"/>
<path d="M46.6673 19.334H45.334V24.0007H46.6673V19.334Z" fill="#B4CDFD"/>
<path d="M49.3337 27.166H34.667C34.3937 27.166 34.167 26.9393 34.167 26.666C34.167 26.3927 34.3937 26.166 34.667 26.166H49.3337C49.607 26.166 49.8337 26.3927 49.8337 26.666C49.8337 26.9393 49.607 27.166 49.3337 27.166Z" fill="#75A3FF"/>
<path d="M48.2463 15.8326L42.2463 13.4326C42.113 13.3792 41.8863 13.3792 41.753 13.4326L35.753 15.8326C35.5197 15.9259 35.333 16.1992 35.333 16.4526V18.6659C35.333 19.0326 35.633 19.3326 35.9997 19.3326H47.9997C48.3663 19.3326 48.6663 19.0326 48.6663 18.6659V16.4526C48.6663 16.1992 48.4797 15.9259 48.2463 15.8326ZM41.9997 17.6659C41.4463 17.6659 40.9997 17.2192 40.9997 16.6659C40.9997 16.1126 41.4463 15.6659 41.9997 15.6659C42.553 15.6659 42.9997 16.1126 42.9997 16.6659C42.9997 17.2192 42.553 17.6659 41.9997 17.6659Z" fill="#75A3FF"/>
<rect width="40" height="40" rx="20" fill="#F1F5FA"/>
<rect x="0.344828" y="0.344828" width="39.3103" height="39.3103" rx="19.6552" stroke="#6C849D" stroke-opacity="0.18" stroke-width="0.689655"/>
<path d="M13.709 14.8242C14.096 14.8242 14.4023 15.1308 14.4023 15.5088V17.1641C14.7713 18.4961 15.9953 19.4233 17.3633 19.4053L20.54 19.3965H20.5674C23.2222 19.3966 25.5801 21.0792 26.4531 23.5811C26.4561 23.5895 26.4564 23.5989 26.459 23.6074C27.8763 23.6895 29 24.8619 29 26.2998C28.9999 27.7908 27.7917 28.9999 26.3008 29C24.8097 29 23.6007 27.7909 23.6006 26.2998C23.6006 25.2427 24.2089 24.329 25.0937 23.8857C24.379 22.0141 22.5765 20.7735 20.5674 20.7734H20.5488L17.3721 20.7822H17.3545C16.2295 20.7822 15.1943 20.3504 14.4023 19.6484V23.6943C15.5526 24.0037 16.3994 25.0518 16.3994 26.2998C16.3993 27.7908 15.1911 28.9999 13.7002 29C12.2091 29 11.0001 27.7909 11 26.2998C11 25.0418 11.861 23.9873 13.0254 23.6875V15.5088C13.0254 15.1309 13.3222 14.8244 13.709 14.8242Z" fill="#B4CDFD"/>
<path d="M13.9249 16.85C15.5403 16.85 16.8499 15.5404 16.8499 13.925C16.8499 12.3096 15.5403 11 13.9249 11C12.3095 11 11 12.3096 11 13.925C11 15.5404 12.3095 16.85 13.9249 16.85Z" fill="#75A3FF"/>
</svg>
