<svg width="84" height="40" viewBox="0 0 84 40" fill="none" xmlns="http://www.w3.org/2000/svg">
<rect x="26" y="4" width="32" height="32" rx="16" fill="#F1F5FA"/>
<rect x="26.3448" y="4.34483" width="31.3103" height="31.3103" rx="15.6552" stroke="#6C849D" stroke-opacity="0.18" stroke-width="0.689655"/>
<path d="M35 16.6C35 15.7163 35.7163 15 36.6 15H47.4C48.2837 15 49 15.7163 49 16.6V19H35V16.6Z" fill="#75A3FF"/>
<path d="M35 19.8008H49V24.6008C49 25.4844 48.2837 26.2008 47.4 26.2008H36.6C35.7163 26.2008 35 25.4844 35 24.6008V19.8008Z" fill="#B4CDFD"/>
<rect x="44" width="40" height="40" rx="20" fill="#F1F5FA"/>
<rect x="44.3448" y="0.344828" width="39.3103" height="39.3103" rx="19.6552" stroke="#6C849D" stroke-opacity="0.18" stroke-width="0.689655"/>
<g clip-path="url(#clip0_7256_10057)">
<path d="M65.8262 24.2961L61.391 28.7313C60.9779 29.1443 60.4959 29.4644 59.9582 29.6823C59.4392 29.8927 58.8911 29.9993 58.3291 29.9993C57.7672 29.9993 57.2191 29.8925 56.7001 29.6823C56.1623 29.4642 55.6803 29.1443 55.2673 28.7313C54.8542 28.3182 54.5341 27.836 54.3162 27.2984C54.1058 26.7795 53.999 26.2316 53.999 25.6694C53.999 25.1075 54.1058 24.5594 54.3162 24.0406C54.5343 23.5028 54.8542 23.0208 55.2673 22.6078L59.7025 18.1725C59.9646 17.9105 60.2545 17.6858 60.569 17.5009C60.75 17.3944 60.9389 17.301 61.1353 17.2215C61.6543 17.0111 62.2022 16.9043 62.7641 16.9043C63.1823 16.9043 63.5929 16.9636 63.9894 17.0805C64.1257 17.1205 64.2604 17.1676 64.3932 17.2215C64.9307 17.4394 65.413 17.7595 65.826 18.1725C66.239 18.5856 66.5591 19.0676 66.777 19.6054C66.8307 19.7382 66.878 19.8728 66.9181 20.0091L66.6979 20.2293C66.3121 20.615 65.8111 20.8164 65.3047 20.8335C65.2234 20.3137 64.9832 19.8146 64.5836 19.415C64.184 19.0153 63.6846 18.775 63.1648 18.6936C62.3798 18.5709 61.5484 18.8113 60.9449 19.415L56.5097 23.8502C55.5064 24.8535 55.5064 26.4856 56.5097 27.4889C57.5128 28.4919 59.1451 28.4921 60.1484 27.4889L64.1602 23.477C64.5107 23.5567 64.8696 23.597 65.2337 23.597C65.6643 23.597 66.0875 23.5408 66.4978 23.4297C66.313 23.7442 66.0883 24.0338 65.8262 24.2961Z" fill="#75A3FF"/>
<path d="M73.9999 14.3303C73.9999 14.8922 73.8933 15.4404 73.6829 15.9591C73.4648 16.4969 73.1449 16.9789 72.7317 17.3922L68.2967 21.8274C68.0344 22.0895 67.7444 22.3142 67.4301 22.499C67.2494 22.6054 67.0602 22.6989 66.8638 22.7784C66.345 22.9889 65.7969 23.0954 65.235 23.0954C64.8168 23.0954 64.4062 23.0364 64.0097 22.9195C63.8734 22.8794 63.7388 22.8321 63.606 22.7784C63.0682 22.5603 62.5862 22.2404 62.1731 21.8274C61.7601 21.4141 61.44 20.9321 61.2221 20.3943C61.1682 20.2618 61.1211 20.1271 61.0811 19.9906L61.3012 19.7705C61.6868 19.3847 62.188 19.1833 62.6942 19.166C62.7755 19.6856 63.0159 20.1849 63.4156 20.5848C63.8152 20.9844 64.3145 21.2248 64.8343 21.3061C65.6193 21.4288 66.4508 21.1884 67.0542 20.5848L71.4894 16.1495C72.4927 15.1465 72.4925 13.5139 71.4894 12.5109C70.4864 11.5078 68.854 11.5078 67.8508 12.5109L63.8391 16.5225C63.4887 16.4428 63.1299 16.4025 62.7656 16.4025C62.3352 16.4025 61.9119 16.4587 61.5017 16.57C61.6866 16.2555 61.9113 15.9655 62.1733 15.7035L66.6086 11.2682C67.0216 10.8552 67.5036 10.5351 68.0414 10.3172C68.5604 10.1068 69.1083 10 69.6702 10C70.2322 10 70.7803 10.1068 71.2992 10.3172C71.837 10.5351 72.319 10.8552 72.7321 11.2682C73.1451 11.6813 73.4652 12.1633 73.6833 12.7011C73.8938 13.2201 74.0003 13.7682 74.0003 14.3301L73.9999 14.3303Z" fill="#B4CDFD"/>
</g>
<defs>
<clipPath id="clip0_7256_10057">
<rect width="20" height="20" fill="white" transform="translate(54 10)"/>
</clipPath>
</defs>
</svg>
