<svg width="26" height="26" viewBox="0 0 26 26" fill="none" xmlns="http://www.w3.org/2000/svg">
<circle cx="13" cy="13" r="12.5" fill="#D8E4FD" stroke="#F1F5FA"/>
<path d="M10.3907 18.3435C10.3727 18.3435 10.3487 18.3555 10.3307 18.3555C9.16671 17.7795 8.21872 16.8255 7.63672 15.6616C7.63672 15.6436 7.64872 15.6196 7.64872 15.6016C8.38072 15.8176 9.13671 15.9796 9.88671 16.1056C10.0187 16.8615 10.1747 17.6115 10.3907 18.3435Z" fill="#75A3FF"/>
<path d="M18.3642 15.6676C17.7702 16.8615 16.7802 17.8275 15.5742 18.4095C15.8022 17.6475 15.9942 16.8795 16.1202 16.1056C16.8762 15.9796 17.6202 15.8176 18.3522 15.6016C18.3462 15.6256 18.3642 15.6496 18.3642 15.6676Z" fill="#75A3FF"/>
<path d="M18.4122 10.4239C17.6562 10.1959 16.8942 10.0099 16.1202 9.87789C15.9942 9.10391 15.8082 8.33592 15.5742 7.58594C16.8162 8.17993 17.8182 9.18191 18.4122 10.4239Z" fill="#75A3FF"/>
<path d="M10.3899 7.65081C10.1739 8.3828 10.0179 9.12678 9.89188 9.88277C9.11788 10.0028 8.34989 10.1948 7.58789 10.4228C8.16989 9.21678 9.13588 8.2268 10.3299 7.63281C10.3479 7.63281 10.3719 7.65081 10.3899 7.65081Z" fill="#75A3FF"/>
<path d="M15.0942 9.75395C13.7022 9.59795 12.2982 9.59795 10.9062 9.75395C11.0562 8.93196 11.2482 8.10998 11.5182 7.31799C11.5302 7.26999 11.5242 7.234 11.5302 7.186C12.0042 7.072 12.4902 7 13.0002 7C13.5042 7 13.9962 7.072 14.4642 7.186C14.4702 7.234 14.4702 7.26999 14.4822 7.31799C14.7522 8.11598 14.9442 8.93196 15.0942 9.75395Z" fill="#4D7FFF"/>
<path d="M9.75399 15.0942C8.92599 14.9442 8.10999 14.7522 7.318 14.4822C7.27 14.4702 7.234 14.4762 7.186 14.4702C7.072 13.9962 7 13.5102 7 13.0002C7 12.4962 7.072 12.0042 7.186 11.5362C7.234 11.5302 7.27 11.5302 7.318 11.5182C8.11599 11.2542 8.92599 11.0562 9.75399 10.9062C9.60399 12.2982 9.60399 13.7022 9.75399 15.0942Z" fill="#75A3FF"/>
<path d="M19.0001 13.0002C19.0001 13.5102 18.9281 13.9962 18.8141 14.4702C18.7661 14.4762 18.7301 14.4702 18.6821 14.4822C17.8841 14.7462 17.0681 14.9442 16.2461 15.0942C16.4021 13.7022 16.4021 12.2982 16.2461 10.9062C17.0681 11.0562 17.8901 11.2482 18.6821 11.5182C18.7301 11.5302 18.7661 11.5362 18.8141 11.5362C18.9281 12.0102 19.0001 12.4962 19.0001 13.0002Z" fill="#75A3FF"/>
<path d="M15.0942 16.2422C14.9442 17.0702 14.7522 17.8862 14.4822 18.6781C14.4702 18.7261 14.4702 18.7621 14.4642 18.8101C13.9962 18.9241 13.5042 18.9961 13.0002 18.9961C12.4902 18.9961 12.0042 18.9241 11.5302 18.8101C11.5242 18.7621 11.5302 18.7261 11.5182 18.6781C11.2542 17.8802 11.0562 17.0702 10.9062 16.2422C11.6022 16.3202 12.2982 16.3742 13.0002 16.3742C13.7022 16.3742 14.4042 16.3202 15.0942 16.2422Z" fill="#4D7FFF"/>
<path d="M15.2576 15.2595C13.7569 15.4488 12.2423 15.4488 10.7416 15.2595C10.5523 13.7588 10.5523 12.2442 10.7416 10.7436C12.2423 10.5542 13.7569 10.5542 15.2576 10.7436C15.4469 12.2442 15.4469 13.7588 15.2576 15.2595Z" fill="#4D7FFF"/>
</svg>
